<?xml version="1.0" standalone="no"?>
<!DOCTYPE svg PUBLIC "-//W3C//DTD SVG 20010904//EN"
 "http://www.w3.org/TR/2001/REC-SVG-20010904/DTD/svg10.dtd">
<svg version="1.0" xmlns="http://www.w3.org/2000/svg"
 width="744.000000pt" height="744.000000pt" viewBox="0 0 744.000000 744.000000"
 preserveAspectRatio="xMidYMid meet">
<metadata>
Created by potrace 1.14, written by Peter Selinger 2001-2017
</metadata>
<g transform="translate(0.000000,744.000000) scale(0.100000,-0.100000)"
fill="#000000" stroke="none">
<path d="M3140 7359 c-702 -109 -1351 -408 -1880 -866 -106 -92 -270 -253
-258 -253 4 0 30 9 58 20 299 118 726 146 1147 75 525 -89 1231 -356 1853
-703 442 -246 934 -598 1314 -939 33 -29 64 -53 70 -53 32 1 400 321 522 454
82 90 210 256 239 310 l18 33 -60 89 c-244 363 -678 807 -1100 1127 -541 410
-1058 624 -1693 702 -136 16 -149 17 -230 4z"/>
<path d="M650 4904 c-158 -24 -251 -59 -378 -144 -153 -101 -157 -107 -187
-245 -160 -730 -87 -1514 207 -2204 343 -807 967 -1475 1748 -1870 404 -205
802 -326 1275 -388 163 -21 670 -24 815 -5 606 81 1089 243 1546 521 444 269
849 654 1133 1075 29 42 49 76 45 76 -4 0 -41 -33 -83 -73 -101 -96 -289 -252
-426 -353 -635 -468 -1319 -756 -2001 -844 -206 -27 -537 -38 -560 -19 -63 52
-229 386 -302 609 -55 169 -72 238 -59 249 7 5 59 27 117 49 318 120 1057 474
1500 719 326 181 854 560 1178 847 133 118 348 334 443 446 188 219 392 527
492 742 31 68 97 253 97 275 0 9 -20 -1 -57 -30 -66 -50 -131 -98 -398 -292
-104 -76 -221 -162 -260 -190 -38 -28 -117 -86 -175 -128 -130 -94 -250 -182
-304 -222 -23 -17 -52 -38 -66 -47 -14 -10 -52 -38 -85 -63 -33 -24 -82 -61
-110 -80 -27 -19 -66 -48 -86 -63 -21 -15 -79 -58 -130 -95 -52 -37 -107 -78
-124 -90 -16 -12 -72 -53 -125 -91 -52 -38 -117 -86 -145 -106 -27 -20 -90
-66 -140 -103 -49 -36 -164 -120 -255 -187 -91 -66 -190 -139 -220 -160 -59
-42 -261 -189 -400 -292 -174 -128 -276 -203 -318 -232 -23 -17 -67 -49 -97
-71 -29 -22 -71 -52 -92 -67 -21 -15 -87 -64 -148 -109 -60 -45 -116 -84 -122
-86 -7 -3 -13 -15 -14 -27 -3 -46 -30 99 -51 274 -20 166 -23 228 -23 610 1
350 4 446 18 545 24 167 53 310 89 449 l31 118 -24 20 c-340 270 -838 614
-1132 782 -168 96 -506 270 -513 264 -7 -8 -128 -352 -164 -471 -55 -178 -123
-456 -154 -627 -60 -332 -79 -578 -74 -945 3 -226 1 -261 -12 -262 -8 0 -78
-23 -155 -51 -238 -85 -429 -153 -460 -164 -16 -5 -39 -13 -50 -18 -11 -5 -37
-14 -57 -20 -21 -6 -42 -19 -47 -27 -6 -12 -17 5 -41 68 -106 273 -167 507
-206 790 -22 157 -25 537 -5 689 46 364 155 739 341 1168 38 90 70 168 70 173
0 9 -59 10 -110 3z m2737 -3446 c-3 -8 -6 -5 -6 6 -1 11 2 17 5 13 3 -3 4 -12
1 -19z"/>
</g>
</svg>
